HIERARCHY
ROOT hip
{
  OFFSET 0 0 0
  CHANNELS 6 Xposition Yposition Zposition Zrotation Yrotation Xrotation
  JOINT abdomen
  {
    OFFSET 0 20.6881 -0.73152
    CHANNELS 3 Zrotation Xrotation Yrotation
    JOINT chest
    {
      OFFSET 0 11.7043 -0.48768
      CHANNELS 3 Zrotation Xrotation Yrotation
      JOINT neck
      {
        OFFSET 0 22.1894 -2.19456
        CHANNELS 3 Zrotation Xrotation Yrotation
        JOINT head
        {
          OFFSET -0.24384 7.07133 1.2192
          CHANNELS 3 Zrotation Xrotation Yrotation
          JOINT leftEye
          {
            OFFSET 4.14528 8.04674 8.04672
            CHANNELS 3 Zrotation Xrotation Yrotation
            End Site
            {
              OFFSET 1 0 0
            }
          }
          JOINT rightEye
          {
            OFFSET -3.6576 8.04674 8.04672
            CHANNELS 3 Zrotation Xrotation Yrotation
            End Site
            {
              OFFSET 1 0 0
            }
          }
        }
      }
      JOINT rCollar
      {
        OFFSET -2.68224 19.2634 -4.8768
        CHANNELS 3 Zrotation Xrotation Yrotation
        JOINT rShldr
        {
          OFFSET -8.77824 -1.95073 1.46304
          CHANNELS 3 Zrotation Xrotation Yrotation
          JOINT rForeArm
          {
            OFFSET -28.1742 -1.7115 0.48768
            CHANNELS 3 Zrotation Xrotation Yrotation
            JOINT rHand
            {
              OFFSET -22.5879 0.773209 7.07136
              CHANNELS 3 Zrotation Xrotation Yrotation
              JOINT rThumb1
              {
                OFFSET -1.2192 -0.487915 3.41376
                CHANNELS 3 Zrotation Xrotation Yrotation
                JOINT rThumb2
                {
                  OFFSET -3.37035 -0.52449 3.41376
                  CHANNELS 3 Zrotation Xrotation Yrotation
                  End Site
                  {
                    OFFSET -1.78271 -1.18214 1.43049
                  }
                }
              }
              JOINT rIndex1
              {
                OFFSET -7.75947 0.938293 5.60832
                CHANNELS 3 Zrotation Xrotation Yrotation
                JOINT rIndex2
                {
                  OFFSET -2.54057 -0.884171 1.56538
                  CHANNELS 3 Zrotation Xrotation Yrotation
                  End Site
                  {
                    OFFSET -1.62519 -0.234802 1.16502
                  }
                }
              }
              JOINT rMid1
              {
                OFFSET -8.24714 1.18213 3.41376
                CHANNELS 3 Zrotation Xrotation Yrotation
                JOINT rMid2
                {
                  OFFSET -3.10165 -0.590103 1.0647
                  CHANNELS 3 Zrotation Xrotation Yrotation
                  End Site
                  {
                    OFFSET -2.48547 -0.328903 0.83742
                  }
                }
              }
              JOINT rRing1
              {
                OFFSET -8.82822 0.546677 1.51678
                CHANNELS 3 Zrotation Xrotation Yrotation
                JOINT rRing2
                {
                  OFFSET -2.60934 -0.819778 -0.0198488
                  CHANNELS 3 Zrotation Xrotation Yrotation
                  End Site
                  {
                    OFFSET -2.33842 -0.294052 0.168128
                  }
                }
              }
              JOINT rPinky1
              {
                OFFSET -8.27202 -0.0477905 -0.4584
                CHANNELS 3 Zrotation Xrotation Yrotation
                JOINT rPinky2
                {
                  OFFSET -1.82734 -0.647385 -0.700984
                  CHANNELS 3 Zrotation Xrotation Yrotation
                  End Site
                  {
                    OFFSET -1.69225 -0.51767 -0.607171
                  }
                }
              }
            }
          }
        }
      }
      JOINT lCollar
      {
        OFFSET 2.68224 19.2634 -4.8768
        CHANNELS 3 Zrotation Xrotation Yrotation
        JOINT lShldr
        {
          OFFSET 8.77824 -1.95073 1.46304
          CHANNELS 3 Zrotation Xrotation Yrotation
          JOINT lForeArm
          {
            OFFSET 28.1742 -1.7115 0.48768
            CHANNELS 3 Zrotation Xrotation Yrotation
            JOINT lHand
            {
              OFFSET 22.5879 0.773209 7.07136
              CHANNELS 3 Zrotation Xrotation Yrotation
              JOINT lThumb1
              {
                OFFSET 1.2192 -0.487915 3.41376
                CHANNELS 3 Zrotation Xrotation Yrotation
                JOINT lThumb2
                {
                  OFFSET 3.37035 -0.52449 3.41376
                  CHANNELS 3 Zrotation Xrotation Yrotation
                  End Site
                  {
                    OFFSET 1.78271 -1.18214 1.43049
                  }
                }
              }
              JOINT lIndex1
              {
                OFFSET 7.75947 0.938293 5.60832
                CHANNELS 3 Zrotation Xrotation Yrotation
                JOINT lIndex2
                {
                  OFFSET 2.54057 -0.884171 1.56538
                  CHANNELS 3 Zrotation Xrotation Yrotation
                  End Site
                  {
                    OFFSET 1.62519 -0.234802 1.16502
                  }
                }
              }
              JOINT lMid1
              {
                OFFSET 8.24714 1.18213 3.41376
                CHANNELS 3 Zrotation Xrotation Yrotation
                JOINT lMid2
                {
                  OFFSET 3.10165 -0.590103 1.0647
                  CHANNELS 3 Zrotation Xrotation Yrotation
                  End Site
                  {
                    OFFSET 2.48547 -0.328903 0.83742
                  }
                }
              }
              JOINT lRing1
              {
                OFFSET 8.82822 0.546677 1.51678
                CHANNELS 3 Zrotation Xrotation Yrotation
                JOINT lRing2
                {
                  OFFSET 2.60934 -0.819778 -0.0198488
                  CHANNELS 3 Zrotation Xrotation Yrotation
                  End Site
                  {
                    OFFSET 2.33842 -0.294052 0.168128
                  }
                }
              }
              JOINT lPinky1
              {
                OFFSET 8.27202 -0.0477905 -0.4584
                CHANNELS 3 Zrotation Xrotation Yrotation
                JOINT lPinky2
                {
                  OFFSET 1.82734 -0.647385 -0.700984
                  CHANNELS 3 Zrotation Xrotation Yrotation
                  End Site
                  {
                    OFFSET 1.69225 -0.51767 -0.607171
                  }
                }
              }
            }
          }
        }
      }
    }
  }
  JOINT rButtock
  {
    OFFSET -8.77824 4.35084 1.2192
    CHANNELS 3 Zrotation Xrotation Yrotation
    JOINT rThigh
    {
      OFFSET 0 -1.70687 -2.19456
      CHANNELS 3 Zrotation Xrotation Yrotation
      JOINT rShin
      {
        OFFSET 0 -36.8199 0.73152
        CHANNELS 3 Zrotation Xrotation Yrotation
        JOINT rFoot
        {
          OFFSET 0.73152 -45.1104 -5.12064
          CHANNELS 3 Zrotation Xrotation Yrotation
          End Site
          {
            OFFSET -1.1221 -3.69964 12.103
          }
        }
      }
    }
  }
  JOINT lButtock
  {
    OFFSET 8.77824 4.35084 1.2192
    CHANNELS 3 Zrotation Xrotation Yrotation
    JOINT lThigh
    {
      OFFSET 0 -1.70687 -2.19456
      CHANNELS 3 Zrotation Xrotation Yrotation
      JOINT lShin
      {
        OFFSET 0 -36.8199 0.73152
        CHANNELS 3 Zrotation Xrotation Yrotation
        JOINT lFoot
        {
          OFFSET -0.73152 -45.1104 -5.12064
          CHANNELS 3 Zrotation Xrotation Yrotation
          End Site
          {
            OFFSET 1.1221 -3.69964 12.103
          }
        }
      }
    }
  }
}
MOTION
Frames:	7
Frame Time:	0.00833333
-5.06304 82.2488 -62.8446 -6.0351 3.4755 2.6615 7.79162 6.50261 2.59894 4.88164 -4.08715 1.10949 -14.8755 -0.0240027 -5.97605 13.268 9.14374 -8.63783 -0.0 0.0 0.0 -0.0 0.0 0.0 2.77871e-13 -1.49369e-13 -1.19257e-13 75.0818 6.08942 -2.3331 -14.4588 -7.33115 26.4811 -0.266359 -14.5446 -2.08956 -1.70249e-09 -3.70773e-10 9.89536e-10 -2.94347e-09 -6.46743e-10 1.69157e-09 -1.70249e-09 -3.7077e-10 9.89525e-10 7.73091 5.47488 0.417314 -1.70249e-09 -3.70771e-10 9.89534e-10 2.90554 0.965183 0.102902 -1.70249e-09 -3.70772e-10 9.89535e-10 10.2786 0.731801 0.0259123 -1.7025e-09 -3.70772e-10 9.89542e-10 2.22167 -0.733487 -0.20892 2.77953e-13 -1.49366e-13 -1.19471e-13 -83.5896 18.3622 4.65841 14.2538 -7.16099 -26.0664 0.0607441 7.01337 -0.990671 -2.30061e-09 -1.70336e-09 -2.75432e-09 -3.99372e-09 -2.95284e-09 -4.74729e-09 -2.30061e-09 -1.70336e-09 -2.75431e-09 -7.73091 5.47488 -0.417314 -2.30061e-09 -1.70336e-09 -2.75431e-09 -2.90554 0.965183 -0.102902 -2.30061e-09 -1.70336e-09 -2.75431e-09 -10.2786 0.731801 -0.0259123 -2.3006e-09 -1.70336e-09 -2.75432e-09 -2.22167 -0.733487 0.20892 -2.03217e-16 0.0 -3.88251e-19 12.1607 -16.3807 3.86335 -0.13359 30.7879 0.50879 -3.07098 -12.1431 -9.04554 2.03217e-16 0.0 3.88251e-19 9.92546 -31.3525 5.03972 1.08279 59.9408 -1.45019 0.268041 -6.12369 -1.76699
-5.27799 82.1635 -61.8912 -6.6053 3.1577 2.5963 8.05062 6.51316 2.75075 4.78161 -4.07765 1.14527 -14.9694 -0.0680252 -5.9964 13.3276 9.1489 -8.64461 -0.0 0.0 0.0 -0.0 0.0 0.0 2.93973e-13 -1.10525e-13 -1.21557e-13 74.8111 6.5039 -1.95397 -14.6211 -7.46672 26.8123 -0.279889 -14.8901 -2.14159 -2.06196e-09 2.94944e-10 6.1754e-10 -3.5624e-09 5.03122e-10 1.04544e-09 -2.06195e-09 2.94946e-10 6.1753e-10 7.73091 5.47488 0.417314 -2.06196e-09 2.94946e-10 6.1754e-10 2.90554 0.965183 0.102902 -2.06195e-09 2.94945e-10 6.1754e-10 10.2786 0.731801 0.0259123 -2.06196e-09 2.94946e-10 6.17546e-10 2.22167 -0.733487 -0.20892 2.94051e-13 -1.10523e-13 -1.21756e-13 -83.7089 18.4553 4.62707 14.3723 -7.2588 -26.306 0.0579416 6.85263 -0.967739 -2.47181e-09 -1.37442e-09 -2.27908e-09 -4.28616e-09 -2.38176e-09 -3.92416e-09 -2.47181e-09 -1.37442e-09 -2.27907e-09 -7.73091 5.47488 -0.417314 -2.47181e-09 -1.37442e-09 -2.27908e-09 -2.90554 0.965183 -0.102902 -2.47182e-09 -1.37442e-09 -2.27908e-09 -10.2786 0.731801 -0.0259123 -2.4718e-09 -1.37442e-09 -2.27909e-09 -2.22167 -0.733487 0.20892 -2.03217e-16 0.0 -3.88251e-19 12.5023 -15.6678 3.96609 -0.127952 30.6258 0.538724 -3.22981 -12.4873 -9.40613 2.03217e-16 0.0 3.88251e-19 10.1364 -32.335 5.01954 1.01466 58.8674 -1.38875 0.393409 -6.78703 -1.04064
-5.24254 82.1282 -61.0631 -6.3578 3.2523 2.7722 8.17053 6.50762 2.91843 4.66293 -4.13416 1.18515 -15.071 0.0186591 -6.0106 13.5209 9.05473 -8.66774 -0.0 0.0 0.0 -0.0 0.0 0.0 2.25719e-13 -8.25027e-14 -1.08193e-13 74.6027 6.78618 -1.63361 -14.7693 -7.59208 27.1156 -0.289004 -15.1178 -2.17598 -1.65455e-09 4.23529e-10 3.43597e-10 -2.85785e-09 7.27111e-10 5.76595e-10 -1.65454e-09 4.23531e-10 3.4359e-10 7.73091 5.47488 0.417314 -1.65455e-09 4.2353e-10 3.43598e-10 2.90554 0.965183 0.102902 -1.65454e-09 4.23529e-10 3.43597e-10 10.2786 0.731801 0.0259123 -1.65455e-09 4.23531e-10 3.43603e-10 2.22167 -0.733487 -0.20892 2.25785e-13 -8.25003e-14 -1.08385e-13 -83.7817 18.6259 4.64056 14.5036 -7.36846 -26.5719 0.054879 6.67146 -0.941913 -1.88469e-09 -7.81882e-10 -1.6174e-09 -3.2673e-09 -1.35494e-09 -2.78401e-09 -1.8847e-09 -7.81882e-10 -1.61739e-09 -7.73091 5.47488 -0.417314 -1.88469e-09 -7.81884e-10 -1.6174e-09 -2.90554 0.965183 -0.102902 -1.8847e-09 -7.81885e-10 -1.6174e-09 -10.2786 0.731801 -0.0259123 -1.88469e-09 -7.81883e-10 -1.61741e-09 -2.22167 -0.733487 0.20892 -2.03217e-16 0.0 -3.88251e-19 12.6801 -14.992 4.00812 -0.121653 30.405 0.565474 -3.35769 -12.8554 -9.63962 2.03217e-16 0.0 3.88251e-19 10.1332 -33.278 4.83302 0.942672 57.6344 -1.32368 0.557711 -7.3656 -0.211391
-5.24718 82.0795 -60.2216 -6.4295 3.1856 2.8884 8.19992 6.49021 3.08551 4.53538 -4.23893 1.2248 -15.1847 0.189854 -6.0208 13.8117 8.89109 -8.69972 -0.0 0.0 0.0 -0.0 0.0 0.0 1.01396e-13 -5.55117e-14 -8.1011e-14 74.434 6.98413 -1.3521 -14.9099 -7.71234 27.4037 -0.295246 -15.2745 -2.19965 -7.83706e-10 2.99499e-10 1.00056e-10 -1.35352e-09 5.1626e-10 1.65171e-10 -7.83707e-10 2.99501e-10 1.00052e-10 7.73091 5.47488 0.417314 -7.83707e-10 2.995e-10 1.00057e-10 2.90554 0.965183 0.102902 -7.83699e-10 2.995e-10 1.00056e-10 10.2786 0.731801 0.0259123 -7.8371e-10 2.99502e-10 1.0006e-10 2.22167 -0.733487 -0.20892 1.01445e-13 -5.55088e-14 -8.11973e-14 -83.8274 18.8469 4.68905 14.6459 -7.48824 -26.8615 0.0517983 6.4846 -0.915296 -8.25002e-10 6.97509e-12 -7.6403e-10 -1.43079e-09 1.16045e-11 -1.3157e-09 -8.25005e-10 6.97653e-12 -7.6402e-10 -7.73091 5.47488 -0.417314 -8.25001e-10 6.97309e-12 -7.64025e-10 -2.90554 0.965183 -0.102902 -8.25011e-10 6.97287e-12 -7.64026e-10 -10.2786 0.731801 -0.0259123 -8.24999e-10 6.97464e-12 -7.64034e-10 -2.22167 -0.733487 0.20892 -2.03217e-16 0.0 -3.88251e-19 12.7522 -14.3341 4.00858 -0.114552 30.1269 0.589795 -3.46854 -13.2224 -9.81314 2.03217e-16 0.0 3.88251e-19 9.96892 -34.1935 4.49966 0.868729 56.2568 -1.25703 0.756377 -7.84049 0.703883
-5.28131 82.0369 -59.3899 -6.7282 3.1158 2.9619 8.18956 6.46197 3.25939 4.40234 -4.34816 1.26565 -15.2863 0.368074 -6.03192 14.103 8.71826 -8.73747 -0.0 0.0 0.0 -0.0 0.0 0.0 -3.38022e-14 -2.83965e-14 -4.56754e-14 74.2746 7.1628 -1.07742 -15.0463 -7.83037 27.6841 -0.30078 -15.4158 -2.22098 2.10534e-10 5.97596e-11 -8.79921e-11 3.63466e-10 1.0613e-10 -1.48934e-10 2.10531e-10 5.97615e-11 -8.79928e-11 7.73091 5.47488 0.417314 2.10532e-10 5.97605e-11 -8.79917e-11 2.90554 0.965183 0.102902 2.10541e-10 5.97601e-11 -8.7992e-11 10.2786 0.731801 0.0259123 2.10529e-10 5.97628e-11 -8.79885e-11 2.22167 -0.733487 -0.20892 -3.37744e-14 -2.83931e-14 -4.58626e-14 -83.8574 19.0847 4.73817 14.7852 -7.60628 -27.1467 0.0491668 6.31843 -0.891646 3.35843e-10 7.55312e-10 1.02476e-10 5.80517e-10 1.30784e-09 1.74698e-10 3.3584e-10 7.55314e-10 1.02486e-10 -7.73091 5.47488 -0.417314 3.35844e-10 7.5531e-10 1.02478e-10 -2.90554 0.965183 -0.102902 3.35832e-10 7.5531e-10 1.02479e-10 -10.2786 0.731801 -0.0259123 3.35845e-10 7.55312e-10 1.02473e-10 -2.22167 -0.733487 0.20892 -2.03217e-16 0.0 -3.88251e-19 12.7776 -13.6425 4.0073 -0.106456 29.7525 0.61067 -3.56531 -13.5542 -9.96006 2.03217e-16 0.0 3.88251e-19 9.74526 -35.0464 4.10205 0.794755 54.7464 -1.18956 0.964407 -8.21007 1.60835
-5.28126 81.9865 -58.5436 -6.8671 3.1053 3.0372 8.19024 6.42396 3.44749 4.26709 -4.41807 1.30912 -15.3519 0.475836 -6.04881 14.2978 8.59647 -8.77781 -0.0 0.0 0.0 -0.0 0.0 0.0 -1.34682e-13 -9.70628e-19 -7.85199e-15 74.0927 7.3872 -0.777333 -15.1822 -7.94898 27.9643 -0.307977 -15.5972 -2.24842 9.88148e-10 -1.58784e-10 -1.95455e-10 1.70597e-09 -2.67717e-10 -3.25819e-10 9.88145e-10 -1.58782e-10 -1.95455e-10 7.73091 5.47488 0.417314 9.88146e-10 -1.58784e-10 -1.95455e-10 2.90554 0.965183 0.102902 9.88155e-10 -1.58784e-10 -1.95455e-10 10.2786 0.731801 0.0259123 9.88142e-10 -1.58781e-10 -1.95451e-10 2.22167 -0.733487 -0.20892 -1.3468e-13 1.55301e-18 -8.05078e-15 -83.8827 19.3057 4.75327 14.908 -7.711 -27.3996 0.0473683 6.19933 -0.874709 1.22642e-09 1.22629e-09 8.03558e-10 2.12375e-09 2.12375e-09 1.38109e-09 1.22642e-09 1.22629e-09 8.03567e-10 -7.73091 5.47488 -0.417314 1.22642e-09 1.22628e-09 8.03558e-10 -2.90554 0.965183 -0.102902 1.22641e-09 1.22628e-09 8.0356e-10 -10.2786 0.731801 -0.0259123 1.22642e-09 1.22629e-09 8.03554e-10 -2.22167 -0.733487 0.20892 -2.03217e-16 0.0 -3.88251e-19 12.813 -12.8656 4.04385 -0.0971694 29.2427 0.627092 -3.65146 -13.817 -10.1137 2.03217e-16 0.0 3.88251e-19 9.57141 -35.8025 3.72701 0.722488 53.1153 -1.12184 1.15396 -8.4737 2.40465
-5.24254 81.9897 -57.6835 -6.8183 3.1197 3.1864 8.20992 6.36727 3.65606 4.12178 -4.43036 1.35587 -15.3617 0.474622 -6.07812 14.3471 8.55342 -8.82932 -0.0 0.0 0.0 -0.0 0.0 0.0 -2.04974e-13 3.94096e-14 4.04267e-14 73.8756 7.67537 -0.43494 -15.3142 -8.06506 28.2381 -0.317928 -15.8414 -2.28547 1.6248e-09 -4.72668e-10 -2.10193e-10 2.80457e-09 -8.06213e-10 -3.43259e-10 1.62479e-09 -4.72665e-10 -2.10196e-10 7.73091 5.47488 0.417314 1.6248e-09 -4.72667e-10 -2.10194e-10 2.90554 0.965183 0.102902 1.6248e-09 -4.72667e-10 -2.10193e-10 10.2786 0.731801 0.0259123 1.62479e-09 -4.72664e-10 -2.1019e-10 2.22167 -0.733487 -0.20892 -2.05006e-13 3.94088e-14 4.01941e-14 -83.8972 19.51 4.71015 15.0097 -7.79847 -27.6092 0.0467353 6.15501 -0.868411 1.92261e-09 1.39491e-09 1.40428e-09 3.33035e-09 2.41597e-09 2.4157e-09 1.92261e-09 1.39491e-09 1.40429e-09 -7.73091 5.47488 -0.417314 1.92261e-09 1.39491e-09 1.40428e-09 -2.90554 0.965183 -0.102902 1.9226e-09 1.39491e-09 1.40428e-09 -10.2786 0.731801 -0.0259123 1.92261e-09 1.39491e-09 1.40428e-09 -2.22167 -0.733487 0.20892 -2.03217e-16 0.0 -3.88251e-19 12.8596 -11.9767 4.12555 -0.086146 28.5598 0.638767 -3.7275 -14.0002 -10.2846 2.03217e-16 0.0 3.88251e-19 9.46657 -36.4548 3.40698 0.652648 51.3485 -1.05486 1.32107 -8.66399 3.09084
